<svg xmlns="http://www.w3.org/2000/svg" width="46" height="46" viewBox="0 0 46 46" fill="none">
  <path d="M0 0H46V46H0V0Z" fill="white" fill-opacity="0.01"/>
  <path d="M17.5219 41.3723C14.3104 40.4162 11.4518 38.641 9.18829 36.289C10.0327 35.2882 10.5416 33.9951 10.5416 32.5832C10.5416 29.4076 7.96722 26.8332 4.79159 26.8332C4.59949 26.8332 4.40958 26.8426 4.22233 26.861C3.96722 25.6138 3.83325 24.3225 3.83325 22.9999C3.83325 20.9964 4.14066 19.0647 4.71088 17.2493C4.73774 17.2497 4.76464 17.2499 4.79159 17.2499C7.96722 17.2499 10.5416 14.6755 10.5416 11.4999C10.5416 10.5882 10.3294 9.72612 9.95183 8.9603C12.1684 6.89929 14.8737 5.35688 17.8748 4.52612C18.8258 6.39013 20.7638 7.66657 22.9999 7.66657C25.236 7.66657 27.174 6.39013 28.125 4.52612C31.1261 5.35688 33.8315 6.89929 36.048 8.9603C35.6704 9.72612 35.4583 10.5882 35.4583 11.4999C35.4583 14.6755 38.0326 17.2499 41.2083 17.2499C41.2352 17.2499 41.2621 17.2497 41.2889 17.2493C41.8592 19.0647 42.1666 20.9964 42.1666 22.9999C42.1666 24.3225 42.0326 25.6138 41.7775 26.861C41.5902 26.8426 41.4004 26.8332 41.2083 26.8332C38.0326 26.8332 35.4583 29.4076 35.4583 32.5832C35.4583 33.9951 35.9671 35.2882 36.8115 36.289C34.548 38.641 31.6894 40.4162 28.4779 41.3723C27.7368 39.0537 25.5644 37.3749 22.9999 37.3749C20.4354 37.3749 18.2631 39.0537 17.5219 41.3723Z" fill="#FF6C10" stroke="#FFF7E8" stroke-width="3" stroke-linejoin="round"/>
  <path d="M23.0001 29.7082C26.705 29.7082 29.7084 26.7048 29.7084 22.9998C29.7084 19.2949 26.705 16.2915 23.0001 16.2915C19.2952 16.2915 16.2917 19.2949 16.2917 22.9998C16.2917 26.7048 19.2952 29.7082 23.0001 29.7082Z" fill="#FDD67C" stroke="white" stroke-width="3" stroke-linejoin="round"/>
</svg>